<svg t="1675997838279" class="icon" viewBox="0 0 1024 1024" version="1.1" xmlns="http://www.w3.org/2000/svg" p-id="4847" width="200" height="200"><path d="M588.8 960c-23.466667-4.266667-38.4-27.733333-32-51.2l21.333333-98.133333h-426.666666L128 925.866667c-4.266667 19.2-21.333333 34.133333-42.666667 34.133333h-8.533333c-23.466667-4.266667-38.4-27.733333-32-51.2l32-149.333333v-2.133334l53.333333-256 85.333334-405.333333c4.266667-23.466667 27.733333-38.4 51.2-32 23.466667 4.266667 38.4 27.733333 32 51.2L277.333333 213.333333h424.533334L725.333333 98.133333v-2.133333c0-2.133333 0-4.266667 2.133334-4.266667 0-2.133333 2.133333-2.133333 2.133333-4.266666s2.133333-2.133333 2.133333-4.266667 2.133333-2.133333 2.133334-4.266667l2.133333-2.133333s2.133333-2.133333 4.266667-2.133333l2.133333-2.133334c2.133333 0 2.133333-2.133333 4.266667-2.133333s2.133333-2.133333 4.266666-2.133333 4.266667-2.133333 6.4-2.133334H778.666667c2.133333 0 4.266667 2.133333 6.4 2.133334 0 0 2.133333 0 2.133333 2.133333 2.133333 0 2.133333 2.133333 4.266667 2.133333l2.133333 2.133334c2.133333 0 2.133333 2.133333 4.266667 2.133333l2.133333 2.133333c0 2.133333 2.133333 2.133333 2.133333 4.266667s2.133333 2.133333 2.133334 4.266667 2.133333 2.133333 2.133333 4.266666 2.133333 4.266667 2.133333 4.266667v2.133333l170.666667 810.666667c4.266667 23.466667-10.666667 44.8-32 51.2H938.666667c-19.2 0-38.4-12.8-42.666667-34.133333l-128-612.266667-42.666667 206.933333-85.333333 405.333334c-4.266667 19.2-21.333333 34.133333-42.666667 34.133333h-8.533333zM168.533333 725.333333h424.533334l36.266666-170.666666H204.8l-36.266667 170.666666z m89.6-426.666666l-36.266666 170.666666h424.533333l36.266667-170.666666H258.133333z" fill="#e3b764" p-id="4848"></path></svg>