<?xml version="1.0" standalone="no"?><!DOCTYPE svg PUBLIC "-//W3C//DTD SVG 1.1//EN" "http://www.w3.org/Graphics/SVG/1.1/DTD/svg11.dtd"><svg t="1673592254270" class="icon" viewBox="0 0 1024 1024" version="1.1" xmlns="http://www.w3.org/2000/svg" p-id="27335" xmlns:xlink="http://www.w3.org/1999/xlink" width="200" height="200"><path d="M512 75.012c-11.36 43.364-108.376 71.064-115.088 126.048l-10.952-32.88C328.84 240.928 333.892 277.784 333.892 277.784l-4.8-26.372c-41.688 69.704-32.86 103.852-28.048 114.264l2.02 3.568s-0.9-1.148-2.02-3.568l-10.992-19.384c-43.296 119.764-5.484 156.532-5.484 156.532l-23.288-27.056c-10.292 91.76 16.44 129.472 16.44 129.472l-16.784-15.76c-2.136 62.328 38.708 99.332 38.708 99.332l-26.92-18.46c51.804 226.32 154.664 232.416 167.928 232.244l-41 1.324c27.344 29.272 62.248 40.624 85.856 45.068 12.872-68.268 24.704-233.58 26.492-666.76 1.788 433.16 13.628 598.48 26.5 666.76 23.612-4.448 58.516-15.804 85.856-45.068l-40.992-1.32c13.28 0.168 116.12-5.952 167.92-232.248l-26.92 18.464s40.844-37 38.708-99.332l-16.784 15.76s26.732-37.708 16.44-129.472l-23.288 27.056s37.812-36.768-5.484-156.532l-10.984 19.36c-1.124 2.436-2.032 3.58-2.032 3.58l2.032-3.576c4.816-10.436 13.612-44.58-28.06-114.244l-4.796 26.372s5.056-36.86-52.068-109.608l-10.96 32.884c-6.708-54.98-103.72-82.68-115.084-126.04z" fill="#43A047" p-id="27336"></path></svg>