<svg t="1676355645276" class="icon" viewBox="0 0 1024 1024" version="1.1" xmlns="http://www.w3.org/2000/svg" p-id="12078" width="200" height="200"><path d="M512 0C229.376 0 0 229.376 0 512s229.376 512 512 512 512-229.376 512-512S794.624 0 512 0z m237.568 494.592l-177.664 153.088c-35.328 26.112-38.4-13.824-38.4-13.824v-69.632C352.768 507.904 279.04 732.16 279.04 732.16c-6.656 12.288-10.752 0-10.752 0-69.632-336.384 265.216-352.768 265.216-352.768V304.128c6.656-31.232 32.768-12.288 32.768-12.288l180.736 154.624c39.424 27.136 2.56 48.128 2.56 48.128z m22.016-156.672c-28.16 0-51.2-23.04-51.2-51.2s23.04-51.2 51.2-51.2 51.2 23.04 51.2 51.2-23.04 51.2-51.2 51.2z" fill="#1296db" p-id="12079"></path></svg>