<svg t="1675235447841" class="icon" viewBox="0 0 1024 1024" version="1.1" xmlns="http://www.w3.org/2000/svg" p-id="2319" id="mx_n_1675235447842" width="200" height="200"><path d="M887.808 955.904H342.016c-18.432 0-33.28-14.848-33.28-33.28s14.848-33.28 33.28-33.28h545.792c18.432 0 33.28 14.848 33.28 33.28s-14.848 33.28-33.28 33.28z" fill="#e6de54" p-id="2320"></path><path d="M777.216 420.864c-8.704 0-16.896-3.072-23.552-9.728-12.8-12.8-12.8-34.304 0-47.104l119.296-119.296-119.296-119.296c-12.8-12.8-12.8-34.304 0-47.104 12.8-12.8 34.304-12.8 47.104 0l142.848 142.848c12.8 12.8 12.8 34.304 0 47.104l-142.848 142.848c-6.656 6.656-14.848 9.728-23.552 9.728z" fill="#e6de54" p-id="2321"></path><path d="M887.296 803.84H357.888C194.56 803.84 61.44 670.72 61.44 507.392s133.12-296.448 296.448-296.448h519.168c18.432 0 33.28 14.848 33.28 33.28s-14.848 33.28-33.28 33.28H357.888C231.424 277.504 128 380.416 128 507.392S231.424 737.28 357.888 737.28h529.408c18.432 0 33.28 14.848 33.28 33.28s-14.848 33.28-33.28 33.28z" fill="#e6de54" p-id="2322"></path></svg>